<svg width="64" height="91" viewBox="0 0 64 91" fill="none" xmlns="http://www.w3.org/2000/svg">
<path d="M54.4661 9.38841C48.5458 3.3345 40.6738 0 32.3017 0C23.9279 0 16.0575 3.3345 10.1372 9.38841C-0.819187 20.5903 -2.18077 41.667 7.18846 54.4367L31.2635 89.9893C31.7608 90.7237 32.8425 90.7236 33.3397 89.9892L57.3773 54.4886C66.7841 41.667 65.4225 20.5903 54.4661 9.38841ZM32.591 43.4571C26.2832 43.4571 21.1491 38.2072 21.1491 31.7571C21.1491 25.3071 26.2832 20.0571 32.591 20.0571C38.8987 20.0571 44.0328 25.3071 44.0328 31.7571C44.0328 38.2072 38.8987 43.4571 32.591 43.4571Z" fill="#F52B3A"/>
</svg>
